<?xml version="1.0"?><svg width="640" height="480" xmlns="http://www.w3.org/2000/svg">
 <title>green ribbon banner</title>
 <g>
  <title>Layer 1</title>
  <g transform="rotate(0.563697874546051 332.53695678710176,187.7913818359393) matrix(1.0949740409851074,0,0,1.0125336245437828,-0.5202655832292065,49.214337922594474) " id="g896">
   <g id="g890">
    <g id="g886">
     <path fill="#ffffaa" fill-rule="evenodd" stroke="black" stroke-width="3.75" id="path882" d="m440.53009,123.712158l-3.895996,58.440002c0,0 18.505981,8.766998 55.518036,14.610992c24.349884,-0.001007 54.543915,-4.871002 54.543915,-4.871002c0,0 -30.194031,-30.194 -30.194031,-28.245987c0,1.947998 32.143066,-15.584 34.091003,-17.532013c-43.829926,0.974014 -110.062927,-15.584 -110.062927,-22.401993z"/>
     <path fill="#ffffaa" fill-rule="evenodd" stroke="black" stroke-width="3.75" id="path883" d="m60.667107,199.684143c0,0 54.544373,8.767029 65.258484,6.819c10.714088,-1.947998 21.428093,0 24.350182,-4.869995c2.921997,-4.871002 16.558304,-72.076996 16.558304,-72.076996c0,0 -44.804497,8.766006 -55.518593,8.766006c-10.714111,0 -50.648376,-4.869995 -50.648376,-4.869995c0,0 21.428177,28.245987 24.350174,28.245987c2.921997,0 -27.272194,39.934998 -24.350174,37.985992z"/>
     <path fill="#ffffaa" fill-rule="evenodd" stroke="black" stroke-width="3.75" id="path884" d="m68.459183,108.128159l12.662102,74.024002c0,0 33.116196,-6.817993 50.648293,-1.947998c13.636093,6.817993 20.454102,8.765991 20.454102,16.557983c0,7.792999 14.610397,-67.205994 14.610397,-67.205994c0,0 -24.350403,-24.349991 -41.8825,-24.349991c-17.532089,0 -52.596397,0 -56.492393,2.921997z"/>
    </g>
    <path fill="#ffffaa" fill-rule="evenodd" stroke="black" stroke-width="3.75" id="path885" d="m436.634094,181.178162c0,0 2.921997,-4.869995 20.453979,-11.688019c17.532013,-6.817978 48.699982,-7.791992 49.673981,-5.843979c0.97406,1.947998 17.532013,-55.518005 17.532013,-55.518005c0,0 -40.90799,-4.869995 -48.699982,-1.947998c-7.791992,2.921997 -35.063995,9.73999 -36.037994,13.636002c-0.973999,3.895996 -1.947998,63.309998 -2.921997,61.362z"/>
   </g>
   <path fill="#ffffaa" fill-rule="evenodd" stroke="black" stroke-width="3.75" id="path881" d="m67.485176,110.076157l14.610107,71.102005c0,0 51.62249,-37.012009 216.22982,-31.167999c169.47699,-4.87001 204.541016,11.687988 208.436951,13.636002c3.895996,1.947998 17.532013,-55.518005 17.532013,-55.518005c0,0 -13.636017,-28.246002 -221.098969,-42.855995c-171.425125,9.739998 -236.683937,29.219994 -235.709923,44.803993l0,0l0,0z"/>
  </g>
 </g>
</svg>